<svg xmlns="http://www.w3.org/2000/svg" viewBox="0 0 200 220" fill="none" role="img" aria-hidden="true">
  <defs>
    <style>
      .ln { stroke: #1D1D1B; stroke-linecap: round; stroke-linejoin: round; }
      .ln-thick { stroke-width: 3.2; }
      .ln-mid { stroke-width: 2; }
      .ln-thin { stroke-width: 1.4; }
      .dots { fill: #1D1D1B; }
      @media (prefers-color-scheme: dark) { .ln { stroke: #e0e0e0; } .dots { fill: #e0e0e0; } }
    </style>
  </defs>
  <path class="ln ln-thick" d="M100 200 C100 200 25 135 32 88 C38 58 62 42 100 58 C138 42 162 58 168 88 C175 135 100 200 100 200 Z"/>
  <path class="ln ln-thick" d="M68 72 L52 55 C40 42 38 25 48 12 C56 2 72 0 82 12 L88 28"/>
  <path class="ln ln-thick" d="M92 62 Q100 48 108 62 M108 65 Q118 50 125 65"/>
  <path class="ln ln-thick" d="M132 72 L148 55 C160 42 162 25 152 12 C142 2 126 0 116 12 L110 28"/>
  <path class="ln ln-mid" d="M75 95 L58 125 M58 125 L45 158 M58 125 L68 152 M58 125 L78 138"/>
  <path class="ln ln-mid" d="M125 95 L142 125 M142 125 L152 152 M142 125 L132 158"/>
  <g transform="translate(35,42)">
    <rect class="ln ln-thick" x="0" y="0" width="26" height="8" rx="1" fill="none"/>
    <rect class="ln ln-thick" x="0" y="8" width="26" height="32" rx="2" fill="none"/>
    <path class="ln ln-thin" d="M4 12 L22 28 M22 12 L4 28 M4 16 L22 32 M22 16 L4 32 M9 12 L9 40 M17 12 L17 40 M4 20 L22 36 M22 20 L4 36"/>
    <path class="ln ln-mid" d="M13 40 L13 58 L8 72"/>
  </g>
  <path class="ln ln-mid" d="M145 172 h42"/>
  <g class="dots" transform="translate(145,166)">
    <circle cx="5" cy="6" r="2.5"/><circle cx="12" cy="6" r="2.5"/><circle cx="19" cy="6" r="2.5"/><circle cx="26" cy="6" r="2.5"/><circle cx="33" cy="6" r="2.5"/><circle cx="40" cy="6" r="2.5"/>
  </g>
</svg>
